<mxfile host="app.diagrams.net" modified="2024-07-11T17:42:32.523Z" agent="Mozilla/5.0 (Windows NT 10.0; Win64; x64) AppleWebKit/537.36 (KHTML, like Gecko) Chrome/126.0.0.0 Safari/537.36" etag="20dzV68E0FyHbNSrtDts" version="24.6.4" type="github">
  <diagram name="Страница — 1" id="GqALR1c42U8bi1WoV4P9">
    <mxGraphModel dx="1974" dy="597" grid="1" gridSize="10" guides="1" tooltips="1" connect="1" arrows="1" fold="1" page="1" pageScale="1" pageWidth="827" pageHeight="1169" math="0" shadow="0">
      <root>
        <mxCell id="0" />
        <mxCell id="1" parent="0" />
        <mxCell id="9qT-mEn7MPkP8aWX0aq4-1" value="Hotel room" style="swimlane;whiteSpace=wrap;html=1;" parent="1" vertex="1">
          <mxGeometry x="313" y="150" width="200" height="200" as="geometry" />
        </mxCell>
        <mxCell id="9qT-mEn7MPkP8aWX0aq4-3" value="type" style="text;html=1;align=center;verticalAlign=middle;resizable=0;points=[];autosize=1;strokeColor=none;fillColor=none;" parent="9qT-mEn7MPkP8aWX0aq4-1" vertex="1">
          <mxGeometry x="75" y="50" width="50" height="30" as="geometry" />
        </mxCell>
        <mxCell id="9qT-mEn7MPkP8aWX0aq4-4" value="price" style="text;html=1;align=center;verticalAlign=middle;resizable=0;points=[];autosize=1;strokeColor=none;fillColor=none;" parent="9qT-mEn7MPkP8aWX0aq4-1" vertex="1">
          <mxGeometry x="75" y="70" width="50" height="30" as="geometry" />
        </mxCell>
        <mxCell id="9qT-mEn7MPkP8aWX0aq4-5" value="description" style="text;html=1;align=center;verticalAlign=middle;resizable=0;points=[];autosize=1;strokeColor=none;fillColor=none;" parent="9qT-mEn7MPkP8aWX0aq4-1" vertex="1">
          <mxGeometry x="60" y="90" width="80" height="30" as="geometry" />
        </mxCell>
        <mxCell id="9qT-mEn7MPkP8aWX0aq4-2" value="number" style="text;html=1;align=center;verticalAlign=middle;resizable=0;points=[];autosize=1;strokeColor=none;fillColor=none;" parent="9qT-mEn7MPkP8aWX0aq4-1" vertex="1">
          <mxGeometry x="70" y="28" width="60" height="30" as="geometry" />
        </mxCell>
        <mxCell id="9qT-mEn7MPkP8aWX0aq4-6" value="image" style="text;html=1;align=center;verticalAlign=middle;resizable=0;points=[];autosize=1;strokeColor=none;fillColor=none;" parent="9qT-mEn7MPkP8aWX0aq4-1" vertex="1">
          <mxGeometry x="70" y="110" width="60" height="30" as="geometry" />
        </mxCell>
        <mxCell id="9qT-mEn7MPkP8aWX0aq4-7" value="Booking" style="swimlane;whiteSpace=wrap;html=1;" parent="1" vertex="1">
          <mxGeometry x="580" y="150" width="200" height="200" as="geometry" />
        </mxCell>
        <mxCell id="9qT-mEn7MPkP8aWX0aq4-13" style="edgeStyle=orthogonalEdgeStyle;rounded=0;orthogonalLoop=1;jettySize=auto;html=1;" parent="9qT-mEn7MPkP8aWX0aq4-7" source="9qT-mEn7MPkP8aWX0aq4-8" edge="1">
          <mxGeometry relative="1" as="geometry">
            <mxPoint x="-70" y="65" as="targetPoint" />
          </mxGeometry>
        </mxCell>
        <mxCell id="9qT-mEn7MPkP8aWX0aq4-8" value="hotel_room" style="text;html=1;align=center;verticalAlign=middle;resizable=0;points=[];autosize=1;strokeColor=none;fillColor=none;" parent="9qT-mEn7MPkP8aWX0aq4-7" vertex="1">
          <mxGeometry x="60" y="50" width="80" height="30" as="geometry" />
        </mxCell>
        <mxCell id="9qT-mEn7MPkP8aWX0aq4-9" value="entry_date" style="text;html=1;align=center;verticalAlign=middle;resizable=0;points=[];autosize=1;strokeColor=none;fillColor=none;" parent="9qT-mEn7MPkP8aWX0aq4-7" vertex="1">
          <mxGeometry x="60" y="70" width="80" height="30" as="geometry" />
        </mxCell>
        <mxCell id="9qT-mEn7MPkP8aWX0aq4-10" value="left_date" style="text;html=1;align=center;verticalAlign=middle;resizable=0;points=[];autosize=1;strokeColor=none;fillColor=none;" parent="9qT-mEn7MPkP8aWX0aq4-7" vertex="1">
          <mxGeometry x="65" y="90" width="70" height="30" as="geometry" />
        </mxCell>
        <mxCell id="9qT-mEn7MPkP8aWX0aq4-11" value="User" style="text;html=1;align=center;verticalAlign=middle;resizable=0;points=[];autosize=1;strokeColor=none;fillColor=none;" parent="9qT-mEn7MPkP8aWX0aq4-7" vertex="1">
          <mxGeometry x="75" y="28" width="50" height="30" as="geometry" />
        </mxCell>
        <mxCell id="KeZSthaTBcWj7xsNBQig-6" style="edgeStyle=orthogonalEdgeStyle;rounded=0;orthogonalLoop=1;jettySize=auto;html=1;entryX=1;entryY=0.5;entryDx=0;entryDy=0;" edge="1" parent="1" source="KeZSthaTBcWj7xsNBQig-2" target="KeZSthaTBcWj7xsNBQig-10">
          <mxGeometry relative="1" as="geometry">
            <mxPoint x="-460" y="360" as="targetPoint" />
          </mxGeometry>
        </mxCell>
        <mxCell id="KeZSthaTBcWj7xsNBQig-2" value="Главное меню" style="rounded=0;whiteSpace=wrap;html=1;" vertex="1" parent="1">
          <mxGeometry x="-300" y="250" width="120" height="60" as="geometry" />
        </mxCell>
        <mxCell id="KeZSthaTBcWj7xsNBQig-12" style="edgeStyle=orthogonalEdgeStyle;rounded=0;orthogonalLoop=1;jettySize=auto;html=1;" edge="1" parent="1" source="KeZSthaTBcWj7xsNBQig-10" target="KeZSthaTBcWj7xsNBQig-11">
          <mxGeometry relative="1" as="geometry" />
        </mxCell>
        <mxCell id="KeZSthaTBcWj7xsNBQig-10" value="Название отеля" style="rounded=0;whiteSpace=wrap;html=1;" vertex="1" parent="1">
          <mxGeometry x="-650" y="250" width="120" height="60" as="geometry" />
        </mxCell>
        <mxCell id="KeZSthaTBcWj7xsNBQig-14" style="edgeStyle=orthogonalEdgeStyle;rounded=0;orthogonalLoop=1;jettySize=auto;html=1;" edge="1" parent="1" source="KeZSthaTBcWj7xsNBQig-11" target="KeZSthaTBcWj7xsNBQig-13">
          <mxGeometry relative="1" as="geometry" />
        </mxCell>
        <mxCell id="KeZSthaTBcWj7xsNBQig-11" value="Комнаты отеля" style="rounded=0;whiteSpace=wrap;html=1;" vertex="1" parent="1">
          <mxGeometry x="-650" y="340" width="120" height="60" as="geometry" />
        </mxCell>
        <mxCell id="KeZSthaTBcWj7xsNBQig-13" value="Кнопка брони" style="rounded=0;whiteSpace=wrap;html=1;" vertex="1" parent="1">
          <mxGeometry x="-650" y="420" width="120" height="30" as="geometry" />
        </mxCell>
        <mxCell id="KeZSthaTBcWj7xsNBQig-19" style="edgeStyle=orthogonalEdgeStyle;rounded=0;orthogonalLoop=1;jettySize=auto;html=1;" edge="1" parent="1" source="KeZSthaTBcWj7xsNBQig-15" target="KeZSthaTBcWj7xsNBQig-17">
          <mxGeometry relative="1" as="geometry" />
        </mxCell>
        <mxCell id="KeZSthaTBcWj7xsNBQig-15" value="Меню брони" style="rounded=0;whiteSpace=wrap;html=1;" vertex="1" parent="1">
          <mxGeometry x="-300" y="400" width="120" height="60" as="geometry" />
        </mxCell>
        <mxCell id="KeZSthaTBcWj7xsNBQig-16" style="edgeStyle=orthogonalEdgeStyle;rounded=0;orthogonalLoop=1;jettySize=auto;html=1;entryX=-0.008;entryY=0.594;entryDx=0;entryDy=0;entryPerimeter=0;" edge="1" parent="1" source="KeZSthaTBcWj7xsNBQig-13" target="KeZSthaTBcWj7xsNBQig-15">
          <mxGeometry relative="1" as="geometry" />
        </mxCell>
        <mxCell id="KeZSthaTBcWj7xsNBQig-20" style="edgeStyle=orthogonalEdgeStyle;rounded=0;orthogonalLoop=1;jettySize=auto;html=1;" edge="1" parent="1" source="KeZSthaTBcWj7xsNBQig-17" target="KeZSthaTBcWj7xsNBQig-18">
          <mxGeometry relative="1" as="geometry" />
        </mxCell>
        <mxCell id="KeZSthaTBcWj7xsNBQig-17" value="Список всех броней на этот номер" style="rounded=0;whiteSpace=wrap;html=1;" vertex="1" parent="1">
          <mxGeometry x="-300" y="490" width="120" height="60" as="geometry" />
        </mxCell>
        <mxCell id="KeZSthaTBcWj7xsNBQig-18" value="Форма для бронирования этого номера" style="rounded=0;whiteSpace=wrap;html=1;" vertex="1" parent="1">
          <mxGeometry x="-130" y="490" width="120" height="60" as="geometry" />
        </mxCell>
      </root>
    </mxGraphModel>
  </diagram>
</mxfile>
